<?xml version="1.0" standalone="no"?>
<!DOCTYPE svg PUBLIC "-//W3C//DTD SVG 1.1//EN" "http://www.w3.org/Graphics/SVG/1.1/DTD/svg11.dtd">
<svg xmlns="http://www.w3.org/2000/svg">
<defs >
<font id="KosugiMaru" horiz-adv-x="512" ><font-face
    font-family="MotoyaLMaru"
    units-per-em="1024"
    panose-1="2 15 3 9 0 0 0 0 0 75"
    ascent="901"
    descent="-123"
    alphabetic="0" />
<glyph unicode=" " />
<glyph unicode="!" d="M314 704L295 238Q293 191 256 191Q218 191 216 238L197 704V717Q197 781 256 781Q314 781 314 714V704ZM286 133T306 110Q324 91 324 65Q324 -3 256 -3T188 66Q188 93 208 113T257 133Z" />
<glyph unicode="&quot;" d="M111 720L110 729Q110 781 164 781Q188 781 204 763Q219 747 218 730L216 720L195 574Q190 542 164 542Q137 542 132 574L111 720ZM296 720L295 730Q295 781 349 781T403 728L402 720L381 574Q376 542 349 542Q323 542 318 574L296 720Z" />
<glyph unicode="#" d="M298 208H193L183 42Q181 -3 145 -3Q108 -3 108 34V46L117 208H80Q32 208 32 248Q32 287 80 287H122L134 510H92Q43 510 43 550Q43 589 92 589H139L147 736Q150 781 186 781Q203 781 214 768Q225 756 224 745L214 589H320L328 736Q331 781
367 781Q384 781 395 768Q406 756 405 746L395 589H432Q481 589 481 550Q481 510 432 510H391L378 287H420Q468 287 468 247Q468 208 420 208H374L364 42Q362 -3 326 -3Q289 -3 289 35V46L298 208ZM303 287L315 510H210L197 287H303Z" />
<glyph unicode="$" d="M292 441L329 424Q478 355 478 216Q478 21 292 -1V-39Q292 -82 257 -82T222 -39V-1Q134 12 84 74T34 212Q34 252 75 252Q114 252 121 204Q135 104 222 77V385L174 408Q42 471 42 591Q42 702 132 753Q173 775 222 780V818Q222 860 257 860T292
818V778Q371 766 418 712T465 598Q465 558 424 558Q387 558 377 601Q362 683 292 701V441ZM222 473V704Q124 687 124 592Q124 517 222 473ZM292 74Q396 97 396 214Q396 305 292 352V74Z" />
<glyph unicode="%" d="M83 -3Q53 -3 53 26Q53 35 58 46L399 757Q410 781 430 781Q460 781 460 752Q460 743 455 732L114 21Q103 -3 83 -3ZM132 781Q188 781 211 740Q234 697 234 587T211 434Q188 393 130 393Q73 393 50 434Q27 477 27 584Q27 697 50 740Q73 781
132 781ZM130 715Q116 715 110 703Q101 686 98 588Q101 489 110 471Q116 459 130 459Q145 459 151 471Q160 489 163 588Q161 662 156 688T130 715ZM384 385Q441 385 463 343T486 190Q486 81 463 38Q440 -3 383 -3Q325 -3 302 38Q279 81 279 185Q279 301 301 343T384
385ZM382 319Q368 319 362 307Q353 290 350 192Q353 92 362 75Q368 63 383 63Q397 63 403 75Q412 93 415 192Q412 290 403 307Q397 319 382 319Z" />
<glyph unicode="&amp;" d="M248 411L362 235Q372 282 376 373Q378 425 416 425Q456 425 456 378Q456 240 417 150L475 61Q486 44 486 34Q486 -3 447 -3Q425 -3 408 22L374 75Q306 -3 218 -3Q131 -3 79 48T27 187Q27 296 149 421L136 441Q65 548 65 623Q65 781
225 781Q380 781 380 630Q380 570 347 524T248 411ZM207 475Q299 568 299 628Q299 702 226 702Q146 702 146 628Q146 566 207 475ZM328 146L192 354Q113 270 113 190Q113 79 218 79Q289 79 328 146Z" />
<glyph unicode="&apos;" d="M200 715V723Q200 781 257 781Q316 781 313 723L312 715L290 577Q285 542 256 542Q228 542 222 577L200 715Z" />
<glyph unicode="(" d="M435 860Q471 860 471 825Q471 807 439 782Q357 718 306 612T255 387Q255 147 446 -10Q471 -31 471 -46Q471 -82 436 -82Q383 -82 283 62T183 390Q183 583 299 739Q389 860 435 860Z" />
<glyph unicode=")" d="M77 860Q130 860 229 715T329 390Q329 197 214 41Q123 -82 76 -82Q41 -82 41 -47Q41 -29 73 -4Q154 59 205 166T257 390Q257 636 65 789Q41 808 41 825Q41 860 77 860Z" />
<glyph unicode="*" d="M274 425L392 536Q411 553 427 553Q469 553 469 511Q469 488 440 472L286 389L438 308Q469 291 469 267Q469 225 427 225Q411 225 392 243L274 353L296 157L297 144Q297 101 256 101T215 144L238 353L120 243Q101 225 85 225Q43 225 43 267Q43
291 74 308L226 389L74 471Q43 487 43 512Q43 553 85 553Q101 553 120 536L238 425L215 634Q215 677 256 677T297 634L296 621L274 425Z" />
<glyph unicode="+" d="M220 353H89Q45 353 45 389T89 425H220V665Q220 710 256 710T292 665V425H423Q467 425 467 389T423 353H292V113Q292 68 256 68T220 113V353Z" />
<glyph unicode="," d="M126 181Q203 181 203 90Q203 22 158 -30T85 -82Q61 -82 61 -57Q61 -46 76 -36Q139 7 139 39Q139 46 134 46L128 45L122 44Q54 44 54 112Q54 181 126 181Z" />
<glyph unicode="-" d="M423 425Q467 425 467 389T423 353H89Q45 353 45 389T89 425H423Z" />
<glyph unicode="." d="M129 181Q159 181 180 159T202 107Q202 76 180 55T128 33Q95 33 73 57Q54 79 54 108T75 159T129 181Z" />
<glyph unicode="/" d="M432 860Q468 860 468 826Q468 817 462 803L117 -52Q105 -82 80 -82Q44 -82 44 -48Q44 -38 49 -25L395 830Q407 860 432 860Z" />
<glyph unicode="0" d="M260 781Q378 781 423 677T468 387Q468 179 417 88T256 -3T95 89T44 384Q44 583 91 682T260 781ZM254 700Q141 700 141 389T256 78T371 391Q371 700 254 700Z" />
<glyph unicode="1" d="M248 639Q198 580 165 580Q116 580 116 628Q116 655 151 675Q191 701 249 764Q264 781 288 781Q345 781 345 723V56Q345 -3 296 -3Q248 -3 248 56V639Z" />
<glyph unicode="2" d="M156 91H416Q465 91 465 51T416 11H115Q47 11 47 69Q47 96 105 161Q261 337 328 456Q363 518 363 584Q363 636 335 668T264 701Q177 701 160 594Q151 536 106 536Q57 536 57 585Q57 617 78 663Q133 782 268 782Q356 782 410 728T465 596Q465
463 281 237L156 91Z" />
<glyph unicode="3" d="M337 407Q471 362 471 217Q471 120 413 59T248 -3Q154 -3 98 54T41 173Q41 222 92 222Q127 222 149 148T250 73Q306 73 341 115T376 223Q376 325 300 355Q270 368 196 368Q158 368 158 410Q158 451 197 451L249 449Q365 449 365 582Q365
705 262 705Q220 705 201 685T158 595Q147 563 113 563Q69 563 69 606Q69 670 121 725T264 781Q357 781 408 726T460 590Q460 457 347 411L337 407Z" />
<glyph unicode="4" d="M395 265H437Q486 265 486 225T437 185H395V50Q395 -3 351 -3T307 50V185H88Q27 185 27 244Q27 265 38 286L280 740Q302 782 338 782Q395 782 395 714V265ZM116 265H307V627L116 265Z" />
<glyph unicode="5" d="M156 445Q211 517 293 517Q376 517 422 448T468 264Q468 -3 248 -3Q126 -3 71 89Q45 133 45 164Q45 216 91 216Q127 216 150 147T249 78Q373 78 373 267Q373 442 277 442Q204 442 167 342Q155 309 119 309Q68 309 68 371V682Q68 717 93 742T153
767H402Q450 767 450 726T402 685H188Q155 686 156 653V445Z" />
<glyph unicode="6" d="M143 436Q208 520 298 520Q378 520 423 452T468 268Q468 143 413 70T261 -3Q44 -3 44 365Q44 781 285 781Q395 781 443 686Q463 647 463 622Q463 576 416 576Q377 576 366 625Q348 705 282 705Q159 705 143 436ZM141 336Q141 73 259 73Q371
73 371 264Q371 444 277 444Q201 444 141 336Z" />
<glyph unicode="7" d="M345 658L347 666Q347 679 330 679H100Q46 679 46 723T100 767H397Q460 767 460 707Q460 692 453 674L210 40Q194 -4 160 -4Q114 -4 114 39Q114 51 120 67L345 658Z" />
<glyph unicode="8" d="M172 415Q51 463 51 587Q51 669 107 725T256 781T405 725T461 587Q461 462 341 415Q481 361 481 216Q481 120 423 59T257 -3Q149 -3 91 59T32 216Q32 361 172 415ZM254 702Q141 702 141 581Q141 525 175 492T256 459Q307 459 339 493T371
582Q371 702 254 702ZM254 374Q201 374 164 334T126 220Q126 76 256 76Q387 76 387 224Q387 294 348 334T254 374Z" />
<glyph unicode="9" d="M369 342Q304 258 214 258Q134 258 89 326T44 510Q44 635 99 708T251 781Q468 781 468 413Q468 -3 227 -3Q117 -3 69 92Q49 131 49 156Q49 202 96 202Q135 202 146 153Q164 73 230 73Q353 73 369 342ZM371 441Q371 705 252 705Q141 705 141
514Q141 334 235 334Q304 334 367 433L371 441Z" />
<glyph unicode=":" d="M257 137Q285 137 305 117T326 67T306 18T256 -3T207 17T186 68Q186 96 206 116T257 137ZM257 546Q285 546 305 526T326 476T306 427T256 406T207 426T186 477Q186 505 206 525T257 546Z" />
<glyph unicode=";" d="M254 136Q327 136 327 47Q327 -20 285 -67T216 -114Q195 -114 195 -91Q195 -79 215 -67Q267 -35 267 2Q267 8 262 8L257 7L250 6Q224 6 205 25T185 72Q185 136 254 136ZM258 546Q286 546 306 526T327 476T307 427T257 406T208 426T187 477Q187
505 207 525T258 546Z" />
<glyph unicode="&lt;" d="M119 389L447 119Q467 103 467 85Q467 47 430 47Q418 47 401 61L65 338Q35 363 35 389Q35 416 65 441L401 717Q416 730 430 730Q467 730 467 693Q467 676 447 659L119 389Z" />
<glyph unicode="=" d="M423 520Q467 520 467 484T423 448H89Q45 448 45 484T89 520H423ZM423 331Q467 331 467 295T423 259H89Q45 259 45 295T89 331H423Z" />
<glyph unicode="&gt;" d="M393 389L65 659Q45 676 45 693Q45 730 82 730Q96 730 111 717L447 441Q477 416 477 389Q477 363 448 339L111 61Q95 47 82 47Q45 47 45 85Q45 102 65 119L393 389Z" />
<glyph unicode="?" d="M207 191T207 237V257Q207 335 228 379T322 500Q370 551 370 598Q370 696 260 696Q170 696 143 597Q130 553 92 553Q48 553 48 595Q48 662 108 721T264 781Q364 781 420 720Q464 670 464 600Q464 541 425 491L338 400Q295 350 295 265V237Q295
191 251 191ZM283 133T303 110Q321 91 321 65Q321 37 301 17T253 -3Q185 -3 185 66Q185 93 205 113T254 133Z" />
<glyph unicode="@" d="M318 560L322 595Q325 624 347 624Q375 624 375 586L339 248Q339 220 357 220Q372 220 383 240Q422 319 422 462Q422 579 380 647T266 716Q191 716 141 627T91 378Q91 233 137 148T258 63Q327 63 380 134Q398 158 414 158Q446 158 446 128Q446
95 387 46T259 -3Q147 -3 86 98T25 388Q25 581 96 681T270 781Q363 781 425 696T488 451Q488 314 443 233T345 152Q306 152 300 218Q261 158 217 158Q133 158 133 293Q133 477 187 580Q210 624 256 624T318 560ZM261 559Q234 559 221 510T202 406T195 295Q195 230
222 230Q258 230 274 305L279 331Q298 431 298 498Q298 559 261 559Z" />
<glyph unicode="A" d="M156 214L114 38Q104 -3 69 -3Q26 -3 26 35L28 50L194 723Q208 781 257 781T321 719L485 50L487 35Q487 -3 444 -3Q409 -3 399 38L358 214H156ZM175 296H338L257 640L175 296Z" />
<glyph unicode="B" d="M331 406Q479 363 479 213Q479 123 422 68T256 11H130Q92 11 67 37T41 99V679Q41 716 67 741T130 767H225Q333 767 377 742Q459 695 459 587Q459 454 331 406ZM135 361V136Q136 97 175 96H227Q384 96 384 226Q384 359 222 361H135ZM135 446H218Q364
449 364 575Q364 628 338 654T239 682H174Q136 681 135 642V446Z" />
<glyph unicode="C" d="M275 781Q364 781 415 716T466 584Q466 540 421 540Q380 540 369 592Q348 691 270 691Q132 691 132 380Q132 87 268 87Q345 87 379 209Q392 256 432 256Q478 256 478 211Q478 167 439 94Q387 -3 271 -3Q34 -3 34 385Q34 781 275 781Z" />
<glyph unicode="D" d="M191 767Q478 767 478 390Q478 19 217 11H120Q84 11 61 38Q41 60 41 91V687Q41 720 64 743T119 767H191ZM135 639V139Q136 100 171 99H199Q381 99 381 393Q381 675 203 679H170Q136 678 135 639Z" />
<glyph unicode="E" d="M135 442H373Q427 442 427 398T373 354H135V139Q136 100 175 99H431Q484 99 484 55T431 11H120Q85 11 61 37Q41 60 41 91V687Q41 721 65 744T120 767H431Q484 767 484 723T431 679H175Q136 678 135 639V442Z" />
<glyph unicode="F" d="M136 435H383Q436 435 436 391T383 347H136V55Q136 -3 88 -3Q41 -3 41 55V687Q41 723 67 746Q89 767 120 767H431Q484 767 484 723T431 679H176Q137 678 136 639V435Z" />
<glyph unicode="G" d="M383 301Q382 329 355 330H302Q255 330 255 373T307 416H389Q473 417 477 341V197Q477 135 460 102Q403 -3 275 -3Q33 -3 33 397Q33 566 93 673T281 781Q396 781 447 692Q478 638 478 598Q478 556 433 556Q390 556 378 606Q357 692 277 692Q130
692 130 403Q130 83 275 83Q382 83 383 194V301Z" />
<glyph unicode="H" d="M135 442H377V723Q377 781 424 781T471 723V53Q471 -4 424 -4T377 53V354H135V53Q135 -4 88 -4T41 53V723Q41 781 88 781T135 723V442Z" />
<glyph unicode="I" d="M206 721Q206 781 256 781Q305 781 305 721V57Q305 -3 255 -3Q206 -3 206 57V721Z" />
<glyph unicode="J" d="M471 255Q471 -3 255 -3Q152 -3 92 59T31 197Q31 244 80 244Q122 244 139 181Q165 86 257 86Q375 86 376 258V723Q376 781 424 781Q471 781 471 723V255Z" />
<glyph unicode="K" d="M134 398L377 755Q395 781 418 781Q462 781 462 739Q462 727 448 708L279 469L476 73Q485 55 485 41Q485 -3 438 -3Q408 -3 390 34L220 386L134 265V54Q134 -3 87 -3T40 54V724Q40 781 87 781T134 724V398Z" />
<glyph unicode="L" d="M139 130Q140 102 168 101H430Q485 101 485 56T430 11H121Q87 11 64 34T41 89V722Q41 781 90 781T139 722V130Z" />
<glyph unicode="M" d="M394 658L296 38Q289 -3 256 -3T217 37L118 658V45Q118 -3 78 -3T38 45V696Q38 781 108 781Q162 781 173 712L256 205L339 712Q350 781 405 781Q474 781 474 696V45Q474 -3 434 -3T394 45V658Z" />
<glyph unicode="N" d="M380 181V725Q380 781 425 781Q471 781 471 725V68Q471 -3 414 -3Q375 -3 354 48L132 593V52Q132 -3 86 -3Q41 -3 41 52V711Q41 781 97 781Q134 781 155 731L380 181Z" />
<glyph unicode="O" d="M261 781Q479 781 479 390Q479 -3 257 -3Q34 -3 34 387Q34 781 261 781ZM255 692Q131 692 131 406Q131 218 170 138Q195 86 256 86Q315 86 340 134Q382 214 382 394Q382 692 255 692Z" />
<glyph unicode="P" d="M135 339V54Q135 -3 88 -3T41 54V688Q41 722 64 744T120 767H233Q341 767 386 741Q482 686 482 560Q482 344 260 339H135ZM135 424H228Q322 424 355 461Q385 497 385 561Q385 621 354 651T242 682H175Q136 681 135 642V424Z" />
<glyph unicode="Q" d="M433 128L476 72Q492 53 492 39Q492 -3 452 -3Q434 -3 419 17L389 55Q338 -3 252 -3Q32 -3 32 389T254 781T476 387Q476 235 433 128ZM334 126L244 241Q228 262 228 274Q228 316 268 316Q286 316 302 296L367 213Q381 277 381 392Q381 692
254 692Q129 692 129 385Q129 85 255 85Q304 85 334 126Z" />
<glyph unicode="R" d="M307 381Q371 364 398 330Q432 282 461 128L474 69L478 43Q478 -3 428 -3Q385 -3 374 54L357 165Q336 292 291 320Q254 347 205 347H135V55Q135 -3 88 -3T41 55V684Q41 719 66 743T124 767H249Q474 767 474 568Q474 417 307 381ZM135 432H213Q377
434 377 567Q377 680 242 682H177Q136 681 135 640V432Z" />
<glyph unicode="S" d="M478 216Q478 115 420 56T262 -3Q122 -3 64 106Q34 162 34 207Q34 258 84 258Q129 258 139 198Q158 83 264 83Q315 83 348 119T381 212Q381 302 276 351L172 400Q42 461 42 586Q42 678 102 729T247 781Q346 781 404 723T462 600Q462 552
414 552Q373 552 357 608Q333 695 246 695Q136 695 136 589Q136 521 214 484L331 429Q478 360 478 216Z" />
<glyph unicode="T" d="M305 678V56Q305 -4 256 -4T207 56V678H74Q25 678 25 723Q25 767 74 767H437Q487 767 487 722Q487 678 437 678H305Z" />
<glyph unicode="U" d="M471 781T471 724V225Q471 -3 256 -3Q44 -3 41 219V724Q41 781 88 781T135 724V230Q135 86 256 86T377 230V724Q377 781 424 781Z" />
<glyph unicode="V" d="M256 170L396 737Q407 781 443 781Q487 781 487 740L485 725L319 54Q304 -4 256 -4T193 58L28 725L26 740Q26 781 70 781Q104 781 115 741L256 170Z" />
<glyph unicode="W" d="M153 249L218 742Q223 781 256 781Q288 781 293 742L358 249L414 739Q419 781 453 781Q491 781 491 743L490 730L411 41Q406 -3 370 -3T328 41L256 567L183 41Q177 -3 141 -3T100 41L21 730L20 743Q20 781 58 781Q92 781 97 739L153 249Z" />
<glyph unicode="X" d="M256 504L381 750Q397 781 424 781Q467 781 467 742Q467 729 459 712L305 407L478 66Q487 48 487 36Q487 -3 443 -3Q414 -3 396 31L256 310L116 31Q99 -3 70 -3Q26 -3 26 36Q26 48 35 66L208 407L54 712Q45 731 45 742Q45 781 89 781Q116
781 133 748L256 504Z" />
<glyph unicode="Y" d="M303 330V55Q303 -3 255 -3Q208 -3 208 55V332L34 713Q26 730 26 742Q26 781 69 781Q98 781 114 747L256 443L397 746Q413 781 442 781Q486 781 486 742Q486 730 478 714L303 330Z" />
<glyph unicode="Z" d="M367 679H95Q40 679 40 723T95 767H397Q476 767 476 699Q476 680 456 646L137 99H429Q483 99 483 55T429 11H110Q30 11 30 81Q30 102 49 135L367 679Z" />
<glyph unicode="[" d="M430 847Q471 847 471 811T430 775H300Q250 775 250 725V53Q250 3 300 3H430Q471 3 471 -33T430 -69H257Q224 -69 201 -45T178 10V768Q178 801 202 824T257 847H430Z" />
<glyph unicode="\" d="M204 364H78Q33 364 33 400T78 436H170L33 716Q26 732 26 744Q26 781 66 781Q93 781 109 748L256 441L403 748Q419 781 446 781Q486 781 486 744Q486 732 479 716L342 436H435Q480 436 480 400T435 364H308L303 354H301V263H435Q480 263
480 227T435 191H301V52Q301 -3 256 -3T211 52V191H78Q33 191 33 227T78 263H211V354H209L204 364Z" />
<glyph unicode="]" d="M82 -69Q41 -69 41 -33T82 3H212Q262 3 262 53V725Q262 775 212 775H82Q41 775 41 811T82 847H255Q288 847 311 823T334 768V10Q334 -25 308 -49Q285 -69 255 -69H82Z" />
<glyph unicode="^" d="M202 901H309L399 816Q410 805 410 795Q410 770 384 770Q378 770 366 777L256 846L136 772L127 770Q101 770 101 795Q101 805 112 816L202 901Z" />
<glyph unicode="_" d="M0 -123V-51H512V-123H0Z" />
<glyph unicode="`" d="M360 759L148 822Q114 832 114 859Q114 901 157 901Q172 901 191 892L381 803Q399 794 399 780Q399 756 375 756L360 759Z" />
<glyph unicode="a" d="M377 80Q300 -3 204 -3Q124 -3 81 39T37 147Q37 321 294 336L377 338V372Q377 465 269 465Q199 465 163 403Q145 372 110 372Q63 372 63 413Q63 442 89 474Q145 546 263 546Q463 546 466 370V42Q466 -3 421 -3Q377 -3 377 39V80ZM377 270Q224
266 176 235T128 150Q128 74 210 74Q273 74 324 117T377 193V270Z" />
<glyph unicode="b" d="M138 463Q194 546 281 546Q369 546 422 471T476 277Q476 153 427 75T282 -3Q192 -3 138 77V48Q138 -3 92 -3Q47 -3 47 52V726Q47 781 93 781Q138 781 138 726V463ZM138 208Q138 166 173 122T270 78Q382 78 382 275Q382 465 267 465Q212 465
176 420T138 329V208Z" />
<glyph unicode="c" d="M269 546Q354 546 409 495T464 394Q464 350 418 350Q382 350 362 400Q337 464 264 464Q135 464 135 273Q135 79 268 79Q347 79 374 168Q387 212 426 212Q472 212 472 169Q472 110 418 54T268 -3Q157 -3 99 72T41 275T102 474T269 546Z" />
<glyph unicode="d" d="M374 77Q320 -3 230 -3Q134 -3 85 75T36 277Q36 399 89 472T231 546Q318 546 374 463V726Q374 781 420 781Q465 781 465 726V43Q465 -3 419 -3Q374 -3 374 39V77ZM374 327Q374 370 339 417T245 465Q130 465 130 275Q130 78 243 78Q299 78
336 120T374 210V327Z" />
<glyph unicode="e" d="M134 250V241Q135 73 264 73Q350 73 376 152Q390 195 426 195Q470 195 470 154Q470 101 415 49T267 -4Q160 -4 101 70T41 271Q41 395 97 470T257 546Q360 546 415 481T471 313Q471 250 406 250H134ZM137 329H364Q376 329 376 340Q376 389
347 429T258 469Q151 469 137 329Z" />
<glyph unicode="f" d="M206 531V657Q206 764 324 767H388Q434 767 434 726Q434 686 388 686H353Q299 686 297 633V531H389Q439 531 439 491Q439 450 389 450H297V52Q297 -3 251 -3Q206 -3 206 52V450H125Q75 450 75 491Q75 531 125 531H206Z" />
<glyph unicode="g" d="M374 501Q418 546 457 546Q492 546 492 505Q492 474 458 464T414 447Q434 409 434 367Q434 303 383 260T254 216Q226 216 198 223Q164 210 164 193Q164 170 232 159Q365 138 417 103T470 4Q470 -123 247 -123Q31 -123 31 -2Q31 80 141 114Q75
139 75 176Q75 215 141 246Q62 292 62 377Q62 447 114 496T249 546Q326 546 374 501ZM249 475Q202 475 172 442Q147 413 147 376Q147 336 175 310Q205 284 249 284Q349 284 349 377Q349 475 249 475ZM223 91Q117 70 117 14Q117 -51 241 -51Q384 -51 384 10Q384
47 317 71T223 91Z" />
<glyph unicode="h" d="M137 448Q210 546 309 546Q463 546 466 366V52Q466 -3 420 -3Q375 -3 375 52V350Q375 465 290 465Q226 465 182 416T137 322V52Q137 -3 91 -3Q46 -3 46 52V726Q46 781 92 781Q137 781 137 726V448Z" />
<glyph unicode="i" d="M208 484Q208 541 255 541T302 484V53Q302 -3 255 -3T208 53V484ZM257 782Q285 782 304 760Q321 742 321 717Q321 652 256 652T191 717T257 782Z" />
<glyph unicode="j" d="M345 31Q345 -63 312 -97Q283 -123 153 -123Q108 -123 108 -82Q108 -42 149 -42Q217 -42 230 -35Q251 -26 251 36V484Q251 541 298 541T345 484V31ZM299 782Q327 782 346 760Q363 742 363 717Q363 652 298 652T233 717T299 782Z" />
<glyph unicode="k" d="M287 332L469 73Q482 54 482 40Q482 -3 437 -3Q412 -3 392 26L224 273L137 192V51Q137 -3 92 -3T47 51V727Q47 781 92 781T137 727V296L380 528Q399 546 416 546Q458 546 458 506Q458 490 438 472L287 332Z" />
<glyph unicode="l" d="M209 724Q209 781 256 781T303 724V54Q303 -3 256 -3T209 54V724Z" />
<glyph unicode="m" d="M289 480Q328 546 383 546Q475 546 476 408V47Q476 -3 433 -3Q391 -3 391 47V402Q391 474 361 474Q335 474 317 440T299 386V47Q299 -3 256 -3Q214 -3 214 47V395Q214 474 186 474Q166 474 144 442T121 383V47Q121 -3 78 -3Q36 -3 36 47V505Q36
546 79 546Q121 546 121 510V482Q163 546 213 546Q270 546 289 480Z" />
<glyph unicode="n" d="M137 449Q210 546 309 546Q463 546 466 366V52Q466 -3 420 -3Q375 -3 375 52V350Q375 465 290 465Q226 465 182 416T137 323V52Q137 -3 91 -3Q46 -3 46 52V495Q46 546 91 546Q137 546 137 496V449Z" />
<glyph unicode="o" d="M260 546Q357 546 416 477T475 270Q475 -3 256 -3T37 271Q37 546 260 546ZM255 464Q130 464 130 256Q130 79 256 79Q381 79 381 269Q381 464 255 464Z" />
<glyph unicode="p" d="M138 465Q194 546 281 546Q370 546 423 475T476 289Q476 168 426 95T282 22Q193 22 138 100V-67Q138 -123 92 -123Q47 -123 47 -67V500Q47 546 93 546Q138 546 138 504V465ZM138 231Q138 188 174 146T269 103Q382 103 382 287Q382 465 267
465Q212 465 176 421T138 331V231Z" />
<glyph unicode="q" d="M374 100Q320 22 230 22Q136 22 86 95T36 290Q36 403 89 474T231 546Q318 546 374 465V504Q374 546 419 546Q465 546 465 500V-67Q465 -123 419 -123Q374 -123 374 -67V100ZM374 328Q374 373 338 419T245 465Q130 465 130 285Q130 103 242
103Q337 103 370 210L374 227V328Z" />
<glyph unicode="r" d="M215 456Q284 546 368 546Q415 546 415 503T353 453T254 408T215 331V52Q215 -3 169 -3Q124 -3 124 52V491Q124 546 170 546Q215 546 215 493V456Z" />
<glyph unicode="s" d="M462 149Q462 82 412 40T265 -3Q164 -3 107 41T50 136Q50 176 95 176Q123 176 157 126T263 76Q365 76 365 148Q365 193 295 221L188 263Q61 312 61 401Q61 466 114 506T249 546Q337 546 391 503T445 418Q445 379 401 379Q369 379 342 423T250
467Q158 467 158 402Q158 360 233 331L344 289Q462 244 462 149Z" />
<glyph unicode="t" d="M195 531V666Q195 721 241 721Q286 721 286 666V531H373Q423 531 423 491T373 451H286V157Q287 107 305 98Q316 92 366 92T417 52Q417 11 372 11H318Q243 11 217 40Q195 68 195 144V451H122Q72 451 72 491T122 531H195Z" />
<glyph unicode="u" d="M375 94Q302 -3 203 -3Q49 -3 46 177V491Q46 546 92 546Q137 546 137 491V192Q137 78 222 78Q286 78 330 127T375 220V491Q375 546 421 546Q466 546 466 491V47Q466 -3 420 -3Q375 -3 375 46V94Z" />
<glyph unicode="v" d="M256 104L393 507Q406 546 439 546Q483 546 483 507L481 493L326 46Q309 -3 256 -3T186 46L36 481Q30 497 30 507Q30 546 74 546Q107 546 121 504L256 104Z" />
<glyph unicode="w" d="M152 159L204 492Q212 546 256 546T308 492L359 159L416 506Q422 546 454 546Q491 546 491 510L490 495L414 46Q406 -3 366 -3Q327 -3 318 46L256 429L194 47Q186 -3 145 -3Q105 -3 97 47L21 495L20 511Q20 546 57 546Q89 546 95 507L152 159Z" />
<glyph unicode="x" d="M309 285L466 66Q478 49 478 36Q478 -3 434 -3Q409 -3 389 25L256 211L123 25Q103 -3 78 -3Q35 -3 35 37Q35 50 47 66L203 285L67 476Q54 494 54 506Q54 546 98 546Q123 546 143 518L256 359L370 518Q390 546 415 546Q458 546 458 506Q458
493 446 476L309 285Z" />
<glyph unicode="y" d="M215 104L41 476Q33 493 33 505Q33 546 78 546Q107 546 123 512L262 212L394 511Q410 546 439 546Q484 546 484 504Q484 492 475 472L229 -86Q213 -123 181 -123Q136 -123 136 -84L139 -68L215 104Z" />
<glyph unicode="z" d="M339 449H105Q55 449 55 490T105 531H380Q453 531 453 473Q453 451 433 427L159 93H414Q464 93 464 52T414 11H121Q48 11 48 71Q48 94 69 120L339 449Z" />
<glyph unicode="{" d="M268 389Q348 372 348 279V77Q349 33 368 14Q394 -8 454 -31Q471 -37 471 -54Q471 -82 443 -82Q409 -82 344 -46T276 68V268Q276 352 196 360Q174 363 174 389T212 421Q276 433 276 508V707Q277 787 342 823T443 860Q471 860 471 833Q471
816 421 797Q349 764 348 704V499Q348 408 268 389Z" />
<glyph unicode="|" d="M220 816Q220 860 256 860T292 816V-38Q292 -82 256 -82T220 -38V816Z" />
<glyph unicode="}" d="M243 389Q164 407 164 499V701Q163 745 144 764Q117 787 56 811Q41 816 41 832Q41 860 69 860Q101 860 168 825T236 707V510Q236 427 316 418Q338 415 338 389T300 357Q236 345 236 270V71Q235 -9 170 -45T69 -82Q41 -82 41 -55Q41 -38 91
-19Q163 14 164 74V279Q164 370 243 389Z" />
<glyph unicode="~" d="M162 700Q142 700 118 678T80 656Q45 656 45 693Q45 719 86 750T171 781Q203 781 263 755T350 729Q369 729 394 751T431 774Q467 774 467 737Q467 708 425 678T341 648Q308 648 248 674T162 700Z" />
<glyph unicode="&#xa7;" horiz-adv-x="1024" d="M424 540L386 557Q304 595 304 664Q304 728 361 771T522 814Q630 814 692 762T755 656Q755 617 711 617Q668 617 651 663Q625 732 522 732Q398 732 398 665Q398 617 575 563T753 407Q753 312 643 272Q764 218 764
130Q764 50 697 7T528 -36Q402 -36 331 21T260 142Q260 183 305 183Q344 183 374 126Q416 46 535 46Q598 46 633 69T669 129Q669 164 633 184T480 243T327 316T289 402Q289 497 424 540ZM530 496Q382 490 382 409Q382 386 397 375Q431 348 535 313Q660 319 660
404Q660 454 530 496Z" />
<glyph unicode="&#xa8;" horiz-adv-x="1024" d="M624 901Q680 901 680 844T623 787T566 844T624 901ZM402 901Q458 901 458 844T401 787T344 844T402 901Z" />
<glyph unicode="&#xb0;" horiz-adv-x="1024" d="M197 860Q259 860 303 814T348 707Q348 641 302 597T195 553Q129 553 85 599T41 708Q41 771 87 815T197 860ZM193 800Q155 800 128 773T101 707Q101 667 129 640T195 613Q234 613 261 641T288 707Q288 746 260 773T193
800Z" />
<glyph unicode="&#xb1;" horiz-adv-x="1024" d="M549 485V260Q549 216 513 216T477 260V485H200Q155 485 155 521T200 557H477V781Q477 825 513 825T549 781V557H826Q870 557 870 521T826 485H549ZM825 145Q870 145 870 109T825 73H199Q155 73 155 109T199 145H825Z" />
<glyph unicode="&#xb2;" horiz-adv-x="1024" />
<glyph unicode="&#xb3;" horiz-adv-x="1024" />
<glyph unicode="&#xb4;" horiz-adv-x="1024" d="M409 759L394 756Q370 756 370 780Q370 794 388 803L578 892Q597 901 612 901Q655 901 655 859Q655 832 621 822L409 759Z" />
<glyph unicode="&#xb5;" horiz-adv-x="1024" />
<glyph unicode="&#xb6;" horiz-adv-x="1024" d="M727 759V-17Q727 -62 690 -62T653 -17V759H547V-17Q547 -62 510 -62T473 -17V365Q259 389 259 601Q259 702 325 767T511 833H751Q786 833 786 796T753 759H727Z" />
<glyph unicode="&#xd7;" horiz-adv-x="1024" d="M563 389L799 153Q815 137 815 123Q815 86 779 86Q764 86 748 102L512 338L276 102Q260 86 245 86Q209 86 209 123Q209 137 225 153L461 389L225 625Q209 641 209 656Q209 692 246 692Q260 692 276 676L512 440L748
676Q764 692 778 692Q815 692 815 656Q815 641 799 625L563 389Z" />
<glyph unicode="&#xf7;" horiz-adv-x="1024" d="M825 425Q870 425 870 389T825 353H199Q155 353 155 389T199 425H825ZM513 663Q539 663 558 644T578 597Q578 531 512 531T446 598Q446 663 513 663ZM513 247Q539 247 558 228T578 181Q578 115 512 115T446 182Q446
247 513 247Z" />
<glyph unicode="&#x2018;" horiz-adv-x="1024" d="M938 860Q961 860 961 837Q961 827 948 817Q889 775 889 743Q889 736 894 736L898 737L904 738Q969 738 969 673Q969 609 902 609Q829 609 829 697Q829 762 871 811T938 860Z" />
<glyph unicode="&#x2019;" horiz-adv-x="1024" d="M122 860Q194 860 194 773Q194 692 130 636Q99 609 85 609Q63 609 63 632Q63 642 76 651Q134 694 134 726Q134 733 130 733L125 732L119 731Q54 731 54 796Q54 860 122 860Z" />
<glyph unicode="&#x201c;" horiz-adv-x="1024" d="M939 860Q962 860 962 837Q962 827 949 818Q890 774 890 743Q890 736 895 736L899 737L905 738Q970 738 970 674Q970 609 903 609Q830 609 830 697Q830 777 895 833Q925 860 939 860ZM749 860Q772 860 772 837Q772
827 759 817Q700 775 700 743Q700 736 705 736L709 737L715 738Q780 738 780 673Q780 609 713 609Q640 609 640 697Q640 762 682 811T749 860Z" />
<glyph unicode="&#x201d;" horiz-adv-x="1024" d="M122 860Q194 860 194 773Q194 692 129 636Q99 609 85 609Q62 609 62 632Q62 642 75 651Q134 694 134 726Q134 733 129 733L125 732L119 731Q54 731 54 796Q54 860 122 860ZM312 860Q384 860 384 772Q384 707
342 658T276 609T253 632Q253 642 266 651Q324 694 324 726Q324 733 319 733L315 732L309 731Q244 731 244 796Q244 860 312 860Z" />
</font>
</defs>
</svg>
